# xmcd CD database file
# Copyright (C) 1997 Ti Kan
#
# Track frame offsets:
#  187
#  19410
#  43240
#  65967
#  89812
#  111262
#  135085
#  154850
#  183730
#  200440
#  219437
#  237797
#  260995
#
# Disc length: 3723 seconds
#
# Revision: 1
# Processed by: cddbd v1.4b41PL1 Copyright (c) Steve Scherf et al.
# Submitted via: CDWizzard Release:4.32
#
DISCID=cb0e890d
DTITLE=Papa John Creach - Papa Blues
DYEAR=1900
DGENRE=
TTITLE0=Sweet Life Blues
TTITLE1=Bumble Bee Blues
TTITLE2=Old Fashioned Papa
TTITLE3=Big Leg Baby
TTITLE4=Why Don't You Let Me Be
TTITLE5=Scufflin'
TTITLE6=Tired of Crying
TTITLE7=Papa Blues
TTITLE8=I Think You're Stepping Out On Me
TTITLE9=Train To Memphis
TTITLE10=Walking My Way Back To You
TTITLE11=Girl, You Must Be Crazy
TTITLE12=Baby Please Don't Go
EXTD=AAD\nBBCD03
EXTT0=
EXTT1=
EXTT2=
EXTT3=
EXTT4=
EXTT5=
EXTT6=
EXTT7=
EXTT8=
EXTT9=
EXTT10=
EXTT11=
EXTT12=
PLAYORDER=
